<?xml version="1.0" encoding="UTF-8" ?>
<!DOCTYPE svg PUBLIC "-//W3C//DTD SVG 1.1//EN" "http://www.w3.org/Graphics/SVG/1.1/DTD/svg11.dtd">
<svg width="256pt" height="256pt" viewBox="0 0 256 256" version="1.1" xmlns="http://www.w3.org/2000/svg">
<g id="#653a91ff">
<path fill="#653a91" opacity="1.00" d=" M 37.48 6.72 C 40.94 6.11 44.47 5.96 47.97 5.92 C 100.67 5.92 153.37 5.93 206.07 5.91 C 213.31 5.78 220.79 6.25 227.42 9.46 C 241.20 15.48 250.57 29.98 250.59 45.00 C 250.61 100.68 250.62 156.37 250.58 212.05 C 250.42 229.60 237.15 246.05 219.89 249.52 C 203.28 248.97 186.64 249.84 170.01 249.26 C 161.65 249.82 153.29 249.07 144.93 249.50 C 129.30 248.84 113.64 249.71 98.00 249.25 C 78.34 249.32 58.70 249.54 39.05 249.37 C 37.66 249.46 36.23 249.57 34.87 249.18 C 22.18 245.74 11.54 235.53 7.75 222.91 C 5.73 216.84 5.93 210.35 5.92 204.04 C 5.93 154.01 5.92 103.98 5.92 53.95 C 5.95 46.63 5.57 39.05 8.24 32.09 C 12.65 19.26 24.19 9.32 37.48 6.72 M 43.30 15.41 C 28.47 15.83 15.51 29.16 15.38 43.97 C 15.31 99.98 15.38 155.99 15.34 212.00 C 15.35 221.64 20.64 230.96 28.66 236.23 C 34.28 240.11 41.28 241.36 48.00 241.35 C 102.32 241.32 156.65 241.34 210.98 241.34 C 216.92 241.20 222.93 239.62 227.85 236.21 C 236.26 230.83 241.29 220.92 241.30 211.01 C 241.32 156.01 241.30 101.01 241.31 46.01 C 241.28 38.76 238.99 31.41 234.16 25.92 C 228.55 19.16 219.81 15.13 211.02 15.32 C 155.11 15.40 99.21 15.22 43.30 15.41 Z" />
<path fill="#653a91" opacity="1.00" d=" M 79.71 37.73 C 82.80 35.86 86.55 36.57 89.98 36.44 C 116.65 36.50 143.32 36.51 169.99 36.44 C 177.29 35.87 183.61 42.94 183.53 49.99 C 183.50 80.67 183.49 111.36 183.53 142.04 C 183.83 146.25 181.11 149.71 178.85 152.96 C 178.86 157.05 179.15 162.59 174.63 164.52 C 169.82 165.15 164.88 164.96 160.05 164.63 C 156.48 163.60 155.47 159.49 154.84 156.29 C 136.81 156.38 118.78 156.19 100.75 156.40 C 100.65 159.42 99.28 162.11 97.49 164.48 C 91.94 164.84 86.13 166.00 80.72 164.28 C 76.52 162.15 77.23 156.94 77.19 153.04 C 74.97 150.09 72.39 146.91 72.49 143.00 C 72.49 111.99 72.53 80.98 72.47 49.97 C 72.35 44.97 75.39 40.14 79.71 37.73 M 84.33 46.40 C 81.85 47.61 81.44 51.70 83.72 53.29 C 85.16 54.54 87.19 54.33 88.96 54.45 C 115.29 54.38 141.64 54.45 167.97 54.42 C 170.62 54.76 173.97 53.10 173.60 50.03 C 173.77 47.07 170.59 45.42 167.98 45.62 C 142.33 45.48 116.67 45.66 91.02 45.53 C 88.78 45.60 86.42 45.44 84.33 46.40 M 83.48 65.43 C 81.98 66.85 82.34 69.09 82.20 70.95 C 82.32 82.28 82.11 93.61 82.29 104.93 C 82.08 107.17 83.61 109.54 86.02 109.51 C 98.29 109.67 110.57 109.44 122.84 109.60 C 123.39 103.75 123.11 97.86 123.19 92.00 C 123.14 82.71 123.43 73.40 122.74 64.13 C 111.49 64.12 100.23 64.13 88.98 64.09 C 87.13 64.22 84.86 63.90 83.48 65.43 M 132.73 64.70 C 132.40 79.63 132.75 94.59 132.59 109.54 C 144.72 109.55 156.86 109.58 168.98 109.54 C 171.51 109.85 173.97 107.68 173.59 105.07 C 173.55 93.02 173.61 80.98 173.56 68.94 C 173.82 66.73 172.28 64.41 169.97 64.26 C 159.34 63.74 148.69 64.18 138.06 63.91 C 136.29 64.01 134.34 63.89 132.73 64.70 M 94.20 124.21 C 87.18 124.89 84.09 134.98 89.60 139.42 C 94.44 144.49 104.21 140.98 104.55 133.93 C 105.57 128.18 99.80 123.03 94.20 124.21 M 156.10 124.98 C 148.72 128.06 150.22 140.26 158.07 141.59 C 164.80 143.67 171.46 135.87 168.41 129.60 C 166.75 124.74 160.53 122.73 156.10 124.98 Z" />
<path fill="#653a91" opacity="1.00" d=" M 60.91 183.58 C 67.62 183.54 74.34 183.45 81.05 183.60 C 85.87 183.76 91.20 184.66 94.58 188.44 C 97.20 191.23 97.06 195.44 96.51 198.97 C 95.70 202.72 92.36 205.03 89.17 206.70 C 91.91 207.71 95.05 208.52 96.91 210.96 C 100.90 216.43 99.43 225.01 93.85 228.84 C 89.81 231.60 84.80 232.47 79.99 232.47 C 73.64 232.50 67.29 232.51 60.95 232.39 C 60.76 216.12 60.83 199.85 60.91 183.58 M 73.79 193.44 C 73.79 196.59 73.76 199.74 73.83 202.90 C 76.41 202.79 79.06 203.03 81.58 202.37 C 84.53 201.12 85.40 197.02 83.29 194.63 C 80.48 192.83 76.94 193.57 73.79 193.44 M 73.79 212.05 C 73.75 215.57 73.80 219.10 73.93 222.61 C 76.98 222.52 80.12 222.87 83.10 222.07 C 87.10 220.97 87.86 214.32 83.86 212.72 C 80.62 211.72 77.14 212.14 73.79 212.05 Z" />
<path fill="#653a91" opacity="1.00" d=" M 112.49 232.47 C 112.40 216.14 112.38 199.82 112.50 183.50 C 119.01 183.56 125.52 183.46 132.03 183.52 C 137.19 183.62 142.78 184.71 146.56 188.49 C 150.76 192.75 151.21 199.46 149.71 204.98 C 148.75 208.79 145.70 211.46 142.90 213.99 C 146.07 220.26 149.81 226.21 152.99 232.48 C 148.23 232.50 143.48 232.47 138.72 232.50 C 135.84 227.25 133.56 221.66 130.35 216.59 C 128.73 216.23 127.05 216.20 125.41 216.07 C 125.43 221.52 125.42 226.98 125.38 232.44 C 121.08 232.46 116.79 232.45 112.49 232.47 M 125.49 193.56 C 125.39 197.78 125.38 202.01 125.46 206.24 C 129.35 205.80 134.49 206.74 137.02 202.96 C 138.44 200.32 138.34 195.89 135.19 194.51 C 132.08 193.43 128.72 193.74 125.49 193.56 Z" />
<path fill="#653a91" opacity="1.00" d=" M 160.24 194.25 C 160.26 190.69 160.29 187.13 160.37 183.57 C 173.18 183.58 185.98 183.52 198.79 183.61 C 198.78 187.16 198.78 190.71 198.80 194.27 C 194.57 194.33 190.34 194.33 186.11 194.32 C 185.52 207.04 186.74 219.78 185.83 232.50 C 181.64 232.46 177.46 232.46 173.27 232.47 C 173.20 219.75 173.41 207.03 173.16 194.31 C 168.85 194.26 164.55 194.30 160.24 194.25 Z" />
<path fill="#653a91" opacity="1.00" d=" M 37.94 249.95 C 47.93 248.94 57.98 249.91 67.99 249.74 C 77.66 249.11 87.33 250.07 97.00 249.74 C 109.33 249.32 121.66 249.94 133.99 249.69 C 139.66 249.88 145.33 249.28 151.00 249.71 C 160.00 249.09 169.00 250.02 177.99 249.53 C 191.37 249.67 204.74 249.56 218.11 249.92 C 215.78 250.34 213.42 250.60 211.05 250.62 C 158.70 250.60 106.34 250.62 53.99 250.61 C 48.63 250.59 43.24 250.85 37.94 249.95 Z" />
</g>
<g id="#f5d86dff">
<path fill="#f5d86d" opacity="1.00" d=" M 43.30 15.41 C 99.21 15.22 155.11 15.40 211.02 15.32 C 219.81 15.13 228.55 19.16 234.16 25.92 C 238.99 31.41 241.28 38.76 241.31 46.01 C 241.30 101.01 241.32 156.01 241.30 211.01 C 241.29 220.92 236.26 230.83 227.85 236.21 C 222.93 239.62 216.92 241.20 210.98 241.34 C 156.65 241.34 102.32 241.32 48.00 241.35 C 41.28 241.36 34.28 240.11 28.66 236.23 C 20.64 230.96 15.35 221.64 15.34 212.00 C 15.38 155.99 15.31 99.98 15.38 43.97 C 15.51 29.16 28.47 15.83 43.30 15.41 M 79.71 37.73 C 75.39 40.14 72.35 44.97 72.47 49.97 C 72.53 80.98 72.49 111.99 72.49 143.00 C 72.39 146.91 74.97 150.09 77.19 153.04 C 77.23 156.94 76.52 162.15 80.72 164.28 C 86.13 166.00 91.94 164.84 97.49 164.48 C 99.28 162.11 100.65 159.42 100.75 156.40 C 118.78 156.19 136.81 156.38 154.84 156.29 C 155.47 159.49 156.48 163.60 160.05 164.63 C 164.88 164.96 169.82 165.15 174.63 164.52 C 179.15 162.59 178.86 157.05 178.85 152.96 C 181.11 149.71 183.83 146.25 183.53 142.04 C 183.49 111.36 183.50 80.67 183.53 49.99 C 183.61 42.94 177.29 35.87 169.99 36.44 C 143.32 36.51 116.65 36.50 89.98 36.44 C 86.55 36.57 82.80 35.86 79.71 37.73 M 60.91 183.58 C 60.83 199.85 60.76 216.12 60.95 232.39 C 67.29 232.51 73.64 232.50 79.99 232.47 C 84.80 232.47 89.81 231.60 93.85 228.84 C 99.43 225.01 100.90 216.43 96.91 210.96 C 95.05 208.52 91.91 207.71 89.17 206.70 C 92.36 205.03 95.70 202.72 96.51 198.97 C 97.06 195.44 97.20 191.23 94.58 188.44 C 91.20 184.66 85.87 183.76 81.05 183.60 C 74.34 183.45 67.62 183.54 60.91 183.58 M 112.49 232.47 C 116.79 232.45 121.08 232.46 125.38 232.44 C 125.42 226.98 125.43 221.52 125.41 216.07 C 127.05 216.20 128.73 216.23 130.35 216.59 C 133.56 221.66 135.84 227.25 138.72 232.50 C 143.48 232.47 148.23 232.50 152.99 232.48 C 149.81 226.21 146.07 220.26 142.90 213.99 C 145.70 211.46 148.75 208.79 149.71 204.98 C 151.21 199.46 150.76 192.75 146.56 188.49 C 142.78 184.71 137.19 183.62 132.03 183.52 C 125.52 183.46 119.01 183.56 112.50 183.50 C 112.38 199.82 112.40 216.14 112.49 232.47 M 160.24 194.25 C 164.55 194.30 168.85 194.26 173.16 194.31 C 173.41 207.03 173.20 219.75 173.27 232.47 C 177.46 232.46 181.64 232.46 185.83 232.50 C 186.74 219.78 185.52 207.04 186.11 194.32 C 190.34 194.33 194.57 194.33 198.80 194.27 C 198.78 190.71 198.78 187.16 198.79 183.61 C 185.98 183.52 173.18 183.58 160.37 183.57 C 160.29 187.13 160.26 190.69 160.24 194.25 Z" />
<path fill="#f5d86d" opacity="1.00" d=" M 84.33 46.40 C 86.42 45.44 88.78 45.60 91.02 45.53 C 116.67 45.66 142.33 45.48 167.98 45.62 C 170.59 45.42 173.77 47.07 173.60 50.03 C 173.97 53.10 170.62 54.76 167.97 54.42 C 141.64 54.45 115.29 54.38 88.96 54.45 C 87.19 54.33 85.16 54.54 83.72 53.29 C 81.44 51.70 81.85 47.61 84.33 46.40 Z" />
<path fill="#f5d86d" opacity="1.00" d=" M 83.48 65.43 C 84.86 63.90 87.13 64.22 88.98 64.09 C 100.23 64.13 111.49 64.12 122.74 64.13 C 123.43 73.40 123.14 82.71 123.19 92.00 C 123.11 97.86 123.39 103.75 122.84 109.60 C 110.57 109.44 98.29 109.67 86.02 109.51 C 83.61 109.54 82.08 107.17 82.29 104.93 C 82.11 93.61 82.32 82.28 82.20 70.95 C 82.34 69.09 81.98 66.85 83.48 65.43 Z" />
<path fill="#f5d86d" opacity="1.00" d=" M 132.73 64.70 C 134.34 63.89 136.29 64.01 138.06 63.91 C 148.69 64.18 159.34 63.74 169.97 64.26 C 172.28 64.41 173.82 66.73 173.56 68.94 C 173.61 80.98 173.55 93.02 173.59 105.07 C 173.97 107.68 171.51 109.85 168.98 109.54 C 156.86 109.58 144.72 109.55 132.59 109.54 C 132.75 94.59 132.40 79.63 132.73 64.70 Z" />
<path fill="#f5d86d" opacity="1.00" d=" M 94.20 124.21 C 99.80 123.03 105.57 128.18 104.55 133.93 C 104.21 140.98 94.44 144.49 89.60 139.42 C 84.09 134.98 87.18 124.89 94.20 124.21 Z" />
<path fill="#f5d86d" opacity="1.00" d=" M 156.10 124.98 C 160.53 122.73 166.75 124.74 168.41 129.60 C 171.46 135.87 164.80 143.67 158.07 141.59 C 150.22 140.26 148.72 128.06 156.10 124.98 Z" />
<path fill="#f5d86d" opacity="1.00" d=" M 73.79 193.44 C 76.94 193.57 80.48 192.83 83.29 194.63 C 85.40 197.02 84.53 201.12 81.58 202.37 C 79.06 203.03 76.41 202.79 73.83 202.90 C 73.76 199.74 73.79 196.59 73.79 193.44 Z" />
<path fill="#f5d86d" opacity="1.00" d=" M 125.49 193.56 C 128.72 193.74 132.08 193.43 135.19 194.51 C 138.34 195.89 138.44 200.32 137.02 202.96 C 134.49 206.74 129.35 205.80 125.46 206.24 C 125.38 202.01 125.39 197.78 125.49 193.56 Z" />
<path fill="#f5d86d" opacity="1.00" d=" M 73.79 212.05 C 77.14 212.14 80.62 211.72 83.86 212.72 C 87.86 214.32 87.10 220.97 83.10 222.07 C 80.12 222.87 76.98 222.52 73.93 222.61 C 73.80 219.10 73.75 215.57 73.79 212.05 Z" />
</g>
</svg>
