<?xml version="1.0" encoding="UTF-8" standalone="no"?>
<!-- Created with Inkscape (http://www.inkscape.org/) -->

<svg
   width="49.461803mm"
   height="27.82613mm"
   viewBox="0 0 49.461803 27.82613"
   version="1.1"
   id="svg1"
   xmlns="http://www.w3.org/2000/svg"
   xmlns:svg="http://www.w3.org/2000/svg">
  <defs
     id="defs1" />
  <path
     fill="#5097b3"
     opacity="1"
     d="m 5.5217453,2.7950115 c 3.29495,-2.54705603 7.7858107,-3.40430603 11.8039507,-2.34950003 3.048,0.86783303 5.93372,2.23308303 8.98172,3.11150003 3.05859,-2.71991703 7.29897,-4.03225003 11.35592,-3.40077803 4.56494,0.60325 8.68186,3.72533303 10.55864,7.91986103 1.32291,2.6246645 1.4358,5.6691345 1.03716,8.5336945 -0.73025,3.64772 -2.97744,6.96736 -6.11011,8.98525 -3.14325,2.03553 -7.13316,2.75872 -10.7703,1.83445 -3.09739,-0.94898 -6.09953,-2.17312 -9.14753,-3.25967 -2.67406,2.43769 -6.32884,3.83822 -9.95892,3.62303 -6.8580007,-0.12348 -12.97516073,-6.1207 -13.22916073,-12.97517 -0.381,-4.5967 1.78858003,-9.2780565 5.47863003,-12.0226675 m 1.24884,4.448527 c -2.45534,2.617611 -3.33022,6.6569205 -2.00378,10.0188905 1.10419,3.13972 3.96522,5.60917 7.2495807,6.18067 2.21545,0.46566 4.52614,0.0106 6.54403,-0.95603 -0.55386,-0.20814 -1.10419,-0.41628 -1.65453,-0.62089 0.46567,-1.28764 0.92075,-2.58233 1.34761,-3.88408 3.75709,1.21002 7.41892,2.70227 11.14778,3.99697 2.08492,0.76905 4.18748,1.74625 6.45936,1.64394 3.51367,-0.0282 6.88975,-2.16958 8.43139,-5.32341 1.397,-2.68817 1.41111,-6.07131 0.0176,-8.7629995 -1.61572,-3.407838 -5.40455,-5.584477 -9.15811,-5.37281 -1.37583,0.151694 -2.88572,0.292805 -3.97933,1.23825 0.46919,0.172861 0.93839,0.338666 1.41111,0.504472 -0.53975,1.273527 -0.99483,2.582338 -1.38995,3.905248 -4.90714,-1.668637 -9.74372,-3.552471 -14.63322,-5.284609 -3.43606,-1.008945 -7.3660007,0.07408 -9.7895807,2.716388 z"
     id="path3-0"
     style="stroke-width:0.352778" />
  <path
     fill="#5097b3"
     opacity="1"
     d="m 11.610696,19.929429 c 1.82386,-4.57553 3.39725,-9.25336 5.09411,-13.8782785 1.29117,0.508 2.61055,0.931333 3.9123,1.407583 -1.66158,4.6531355 -3.31963,9.3098055 -5.07294,13.9276655 -1.29117,-0.53622 -2.63878,-0.93133 -3.93347,-1.45697 z"
     id="path4-3"
     style="stroke-width:0.352778" />
  <path
     fill="#5097b3"
     opacity="1"
     d="m 28.836836,20.306899 c 1.64042,-4.63903 3.28083,-9.28511 5.04825,-13.8747485 1.28411,0.405694 2.55058,0.867833 3.79589,1.386416 -1.50989,4.6919425 -3.34786,9.2710025 -4.96359,13.9276725 -1.28411,-0.50448 -2.5788,-0.98425 -3.88055,-1.43934 z"
     id="path5-9"
     style="stroke-width:0.352778" />
  <path
     fill="#5097b3"
     opacity="1"
     d="m 23.658056,9.3884295 c 1.64747,-0.33161 3.44311,0.12347 4.5332,1.4534395 2.16958,2.23661 1.10772,6.48759 -1.8909,7.39423 -2.64583,1.03011 -5.87375,-0.92075 -6.11363,-3.75709 -0.36337,-2.26836 1.27705,-4.5543595 3.47133,-5.0905795 z"
     id="path6"
     style="stroke-width:0.352778" />
</svg>
