<?xml version="1.0" encoding="UTF-8" standalone="no"?>
<svg
   width="317.80984"
   height="320.37183"
   xml:space="preserve"
   version="1.1"
   viewBox="0 0 317.80984 320.37183"
   id="svg1"
   xmlns="http://www.w3.org/2000/svg"
   xmlns:svg="http://www.w3.org/2000/svg"><defs
   id="defs1" />
  
<g
   id="g1"
   transform="matrix(1.3333333,0,0,1.3333333,-297.01314,-227.77956)"><g
     id="#000000ff"
     transform="matrix(0.55928588,0,0,0.55928588,216.93697,164.28707)"><path
       fill="#000000"
       opacity="1"
       d="m 21.54,12.89 c 1.73,-0.63 3.51,-1.23 5.37,-1.18 131.06,0 262.12,0 393.18,0 9.26,0.26 16.86,9.1 16.49,18.21 0.01,131.05 0.01,262.11 0,393.16 0.37,9.11 -7.26,17.96 -16.52,18.21 C 290.7,441.3 161.35,441.28 32,441.3 c -2.84,-0.09 -5.77,0.33 -8.52,-0.54 -7.73,-1.96 -13.32,-9.78 -13.06,-17.68 -0.01,-131.05 -0.01,-262.11 0,-393.16 -0.21,-7.21 4.35,-14.41 11.12,-17.03 m 23.82,25.64 c -6.26,1.74 -11.06,7.86 -10.91,14.42 -0.03,116.02 -0.02,232.05 0,348.08 -0.27,6.14 3.76,12.08 9.53,14.14 4.13,1.77 8.67,1.08 13.03,1.19 113.35,0 226.7,-0.02 340.05,0.01 8.27,0.18 16.04,-7.01 15.5,-15.48 0,-115.92 0.01,-231.84 0,-347.76 0.34,-7.8 -6.6,-15.28 -14.5,-14.91 -116.38,0.01 -232.75,0.01 -349.12,0 -1.21,0 -2.4,0.1 -3.58,0.31 z"
       id="path2" /><path
       fill="#000000"
       opacity="1"
       d="m 157.45,49.37 c 58.94,-0.03 117.88,-0.19 176.82,0.08 22.6,106.54 45.5,213.04 68.21,319.56 0.29,7.02 0.06,14.06 0.12,21.08 0.1,7.63 -6.73,15.02 -14.55,14.55 -103.02,-0.03 -206.03,-0.01 -309.05,-0.01 -7,-0.17 -14.04,0.35 -21.03,-0.27 -5.75,-1.57 -11.07,-7.05 -10.64,-13.31 0.01,-27.7 0.03,-55.4 -0.01,-83.1 -0.07,-1.91 0.31,-3.79 1.14,-5.51 17.59,-40.87 35.16,-81.75 52.73,-122.63 11.03,-25.47 21.75,-51.09 33.04,-76.45 47.96,-0.01 95.92,-0.03 143.88,0.01 0.66,12.1 0.34,24.26 0.17,36.38 -1.76,0.15 -3.5,0.36 -5.25,0.41 -39.9,0.12 -79.81,-0.13 -119.71,0.13 -23.45,51.8 -46.87,103.62 -70.37,155.4 -2.11,4.48 -3.62,9.83 -1.18,14.51 34.4,0.29 68.82,0.06 103.22,0.11 6.03,-0.51 13.04,0.44 16.66,5.9 4.34,5.74 2.27,13.22 2.76,19.83 -0.21,5.8 4.18,11.01 9.55,12.71 2.89,1.05 6.01,0.61 9.02,0.69 43.03,-0.02 86.05,-0.02 129.08,0.01 4.36,0.22 8.8,-2.38 10.34,-6.54 1.23,-6.29 -1,-12.48 -2.21,-18.58 -15.69,-73.01 -31.43,-146.01 -47.13,-219.02 -1.23,-5.58 -2.19,-11.24 -3.89,-16.7 -56.25,0 -112.5,0.17 -168.75,-0.08 5.9,-12.96 11.13,-26.21 17.03,-39.16 z"
       id="path3" /><path
       fill="#000000"
       opacity="1"
       d="m 225.4,228.35 c 1.78,-0.63 3.67,-0.73 5.55,-0.73 22.35,0.04 44.69,0.02 67.04,0.01 4,0.05 8.15,-0.39 11.98,1.06 3.83,1.51 7.37,4.05 9.57,7.59 2.52,3.82 3.17,8.45 4.2,12.81 4.66,20.84 9.56,41.63 14.24,62.46 2.14,9 -5.26,19.75 -14.95,19.05 -31.31,-0.05 -62.62,0 -93.93,-0.02 -7.58,0.17 -14.25,-7.04 -13.74,-14.57 -0.06,-24 0,-48.01 -0.03,-72.01 -0.97,-6.86 3.72,-13.42 10.07,-15.65 z"
       id="path4" /></g><g
     id="#eed669ff"
     transform="matrix(0.55928588,0,0,0.55928588,216.93697,164.28707)"><path
       fill="#eed669"
       opacity="1"
       d="m 45.36,38.53 c 1.18,-0.21 2.37,-0.31 3.58,-0.31 116.37,0.01 232.74,0.01 349.12,0 7.9,-0.37 14.84,7.11 14.5,14.91 0.01,115.92 0,231.84 0,347.76 0.54,8.47 -7.23,15.66 -15.5,15.48 -113.35,-0.03 -226.7,-0.01 -340.05,-0.01 -4.36,-0.11 -8.9,0.58 -13.03,-1.19 -5.77,-2.06 -9.8,-8 -9.53,-14.14 C 34.43,285 34.42,168.97 34.45,52.95 34.3,46.39 39.1,40.27 45.36,38.53 m 112.09,10.84 c -5.9,12.95 -11.13,26.2 -17.03,39.16 56.25,0.25 112.5,0.08 168.75,0.08 1.7,5.46 2.66,11.12 3.89,16.7 15.7,73.01 31.44,146.01 47.13,219.02 1.21,6.1 3.44,12.29 2.21,18.58 -1.54,4.16 -5.98,6.76 -10.34,6.54 -43.03,-0.03 -86.05,-0.03 -129.08,-0.01 -3.01,-0.08 -6.13,0.36 -9.02,-0.69 -5.37,-1.7 -9.76,-6.91 -9.55,-12.71 -0.49,-6.61 1.58,-14.09 -2.76,-19.83 -3.62,-5.46 -10.63,-6.41 -16.66,-5.9 -34.4,-0.05 -68.82,0.18 -103.22,-0.11 -2.44,-4.68 -0.93,-10.03 1.18,-14.51 23.5,-51.78 46.92,-103.6 70.37,-155.4 39.9,-0.26 79.81,-0.01 119.71,-0.13 1.75,-0.05 3.49,-0.26 5.25,-0.41 0.17,-12.12 0.49,-24.28 -0.17,-36.38 -47.96,-0.04 -95.92,-0.02 -143.88,-0.01 -11.29,25.36 -22.01,50.98 -33.04,76.45 -17.57,40.88 -35.14,81.76 -52.73,122.63 -0.83,1.72 -1.21,3.6 -1.14,5.51 0.04,27.7 0.02,55.4 0.01,83.1 -0.43,6.26 4.89,11.74 10.64,13.31 6.99,0.62 14.03,0.1 21.03,0.27 103.02,0 206.03,-0.02 309.05,0.01 7.82,0.47 14.65,-6.92 14.55,-14.55 -0.06,-7.02 0.17,-14.06 -0.12,-21.08 C 379.77,262.49 356.87,155.99 334.27,49.45 275.33,49.18 216.39,49.34 157.45,49.37 m 67.95,178.98 c -6.35,2.23 -11.04,8.79 -10.07,15.65 0.03,24 -0.03,48.01 0.03,72.01 -0.51,7.53 6.16,14.74 13.74,14.57 31.31,0.02 62.62,-0.03 93.93,0.02 9.69,0.7 17.09,-10.05 14.95,-19.05 -4.68,-20.83 -9.58,-41.62 -14.24,-62.46 -1.03,-4.36 -1.68,-8.99 -4.2,-12.81 -2.2,-3.54 -5.74,-6.08 -9.57,-7.59 -3.83,-1.45 -7.98,-1.01 -11.98,-1.06 -22.35,0.01 -44.69,0.03 -67.04,-0.01 -1.88,0 -3.77,0.1 -5.55,0.73 z"
       id="path5" /></g></g></svg>
