{
  "accessors": [
    {
      "bufferView": 2,
      "componentType": 5126,
      "count": 8651,
      "max": [
        -200.38160705566406,
        -183.06602478027344,
        1504.1700439453125
      ],
      "min": [
        -285.1333923339844,
        -291.71636962890625,
        1282.74853515625
      ],
      "type": "VEC3"
    },
    {
      "bufferView": 2,
      "byteOffset": 103812,
      "componentType": 5126,
      "count": 8651,
      "max": [
        0.9997082948684692,
        0.9992883205413818,
        0.9997597336769104
      ],
      "min": [
        -0.9997082948684692,
        -0.9992883205413818,
        -0.9997597336769104
      ],
      "type": "VEC3"
    },
    {
      "bufferView": 1,
      "componentType": 5126,
      "count": 8651,
      "max": [
        1.0,
        1.0
      ],
      "min": [
        0.0,
        0.0
      ],
      "type": "VEC2"
    },
    {
      "bufferView": 0,
      "componentType": 5125,
      "count": 47304,
      "type": "SCALAR"
    },
    {
      "bufferView": 2,
      "byteOffset": 207624,
      "componentType": 5126,
      "count": 4676,
      "max": [
        -108.37065124511719,
        -175.84376525878906,
        1469.4949951171875
      ],
      "min": [
        -215.8952178955078,
        -220.09884643554688,
        1412.18603515625
      ],
      "type": "VEC3"
    },
    {
      "bufferView": 2,
      "byteOffset": 263736,
      "componentType": 5126,
      "count": 4676,
      "max": [
        0.9998760223388672,
        0.9997422099113464,
        0.9998711943626404
      ],
      "min": [
        -0.9998760223388672,
        -0.9997422099113464,
        -0.9998711943626404
      ],
      "type": "VEC3"
    },
    {
      "bufferView": 1,
      "byteOffset": 69208,
      "componentType": 5126,
      "count": 4676,
      "max": [
        1.0,
        1.0
      ],
      "min": [
        0.0,
        0.0
      ],
      "type": "VEC2"
    },
    {
      "bufferView": 0,
      "byteOffset": 189216,
      "componentType": 5125,
      "count": 25776,
      "type": "SCALAR"
    },
    {
      "bufferView": 2,
      "byteOffset": 319848,
      "componentType": 5126,
      "count": 1786,
      "max": [
        -125.44291687011719,
        -190.14688110351563,
        1510.25146484375
      ],
      "min": [
        -251.80955505371094,
        -278.1050109863281,
        1439.7017822265625
      ],
      "type": "VEC3"
    },
    {
      "bufferView": 2,
      "byteOffset": 341280,
      "componentType": 5126,
      "count": 1786,
      "max": [
        0.993323028087616,
        0.9987203478813171,
        0.9996636509895325
      ],
      "min": [
        -0.993323028087616,
        -0.9987203478813171,
        -0.9996636509895325
      ],
      "type": "VEC3"
    },
    {
      "bufferView": 1,
      "byteOffset": 106616,
      "componentType": 5126,
      "count": 1786,
      "max": [
        1.0,
        1.0
      ],
      "min": [
        0.0,
        0.0
      ],
      "type": "VEC2"
    },
    {
      "bufferView": 0,
      "byteOffset": 292320,
      "componentType": 5125,
      "count": 9648,
      "type": "SCALAR"
    }
  ],
  "asset": {
    "extras": {
      "author": "ajh5se (https://sketchfab.com/ajh5se)",
      "license": "CC-BY-4.0 (http://creativecommons.org/licenses/by/4.0/)",
      "source": "https://sketchfab.com/3d-models/antibodies-d44af0a93b9b44ad8cb78ada0e7f387e",
      "title": "ANTIBODIES"
    },
    "generator": "Sketchfab-12.68.0",
    "version": "2.0"
  },
  "bufferViews": [
    {
      "buffer": 0,
      "byteLength": 330912,
      "name": "floatBufferViews",
      "target": 34963
    },
    {
      "buffer": 0,
      "byteLength": 120904,
      "byteOffset": 330912,
      "byteStride": 8,
      "name": "floatBufferViews",
      "target": 34962
    },
    {
      "buffer": 0,
      "byteLength": 362712,
      "byteOffset": 451816,
      "byteStride": 12,
      "name": "floatBufferViews",
      "target": 34962
    }
  ],
  "buffers": [
    {
      "byteLength": 814528,
      "uri": "scene.bin"
    }
  ],
  "materials": [
    {
      "doubleSided": true,
      "name": "Standard1D7789",
      "pbrMetallicRoughness": {
        "metallicFactor": 0.0,
        "roughnessFactor": 0.6
      }
    },
    {
      "doubleSided": true,
      "name": "Standard2C0F5B",
      "pbrMetallicRoughness": {
        "metallicFactor": 0.0,
        "roughnessFactor": 0.6
      }
    }
  ],
  "meshes": [
    {
      "name": "Object_0",
      "primitives": [
        {
          "attributes": {
            "NORMAL": 1,
            "POSITION": 0,
            "TEXCOORD_0": 2
          },
          "indices": 3,
          "material": 0,
          "mode": 4
        }
      ]
    },
    {
      "name": "Object_1",
      "primitives": [
        {
          "attributes": {
            "NORMAL": 5,
            "POSITION": 4,
            "TEXCOORD_0": 6
          },
          "indices": 7,
          "material": 0,
          "mode": 4
        }
      ]
    },
    {
      "name": "Object_2",
      "primitives": [
        {
          "attributes": {
            "NORMAL": 9,
            "POSITION": 8,
            "TEXCOORD_0": 10
          },
          "indices": 11,
          "material": 1,
          "mode": 4
        }
      ]
    }
  ],
  "nodes": [
    {
      "children": [
        1
      ],
      "matrix": [
        1.0,
        0.0,
        0.0,
        0.0,
        0.0,
        2.220446049250313e-16,
        -1.0,
        0.0,
        0.0,
        1.0,
        2.220446049250313e-16,
        0.0,
        0.0,
        0.0,
        0.0,
        1.0
      ],
      "name": "Sketchfab_model"
    },
    {
      "children": [
        2,
        3,
        4
      ],
      "name": "ANTIBODIES.obj.cleaner.materialmerger.gles"
    },
    {
      "mesh": 0,
      "name": "Object_2"
    },
    {
      "mesh": 1,
      "name": "Object_3"
    },
    {
      "mesh": 2,
      "name": "Object_4"
    }
  ],
  "scene": 0,
  "scenes": [
    {
      "name": "Sketchfab_Scene",
      "nodes": [
        0
      ]
    }
  ]
}
